<svg xmlns="http://www.w3.org/2000/svg" width="1000" height="1674" viewBox="0 0 1000 1674" font-family="-apple-system,Segoe UI,system-ui,sans-serif"><defs></defs><rect x="0" y="0" width="1000" height="1674" rx="18" fill="#0E1116"/><text x="30" y="56" font-family="-apple-system,Segoe UI,system-ui,sans-serif" font-size="30" font-weight="800" fill="#E9E9EC" letter-spacing="0.5">CORE SOLUTIONS</text><rect x="30" y="66" width="74" height="4" rx="2" fill="#FAAFA5"/><text x="30" y="90" font-family="ui-monospace,Menlo,monospace" font-size="12" fill="#9AA0AA">rand0m / Random Knights - stack, models &amp; status</text><circle cx="34" cy="104" r="4" fill="#69DB88"/><text x="43" y="108" font-family="ui-monospace,Menlo,monospace" font-size="10" fill="#9AA0AA">live</text><circle cx="81.6" cy="104" r="4" fill="#69DB88"/><text x="90.6" y="108" font-family="ui-monospace,Menlo,monospace" font-size="10" fill="#9AA0AA">enabled</text><circle cx="148.4" cy="104" r="4" fill="#14B8A6"/><text x="157.4" y="108" font-family="ui-monospace,Menlo,monospace" font-size="10" fill="#9AA0AA">derived</text><circle cx="215.20000000000002" cy="104" r="4" fill="#75C8E2"/><text x="224.20000000000002" y="108" font-family="ui-monospace,Menlo,monospace" font-size="10" fill="#9AA0AA">asset-backed</text><circle cx="314.0" cy="104" r="4" fill="#A855F7"/><text x="323.0" y="108" font-family="ui-monospace,Menlo,monospace" font-size="10" fill="#9AA0AA">experimental</text><circle cx="412.8" cy="104" r="4" fill="#EDC303"/><text x="421.8" y="108" font-family="ui-monospace,Menlo,monospace" font-size="10" fill="#9AA0AA">MVP</text><circle cx="454.0" cy="104" r="4" fill="#878D97"/><text x="463.0" y="108" font-family="ui-monospace,Menlo,monospace" font-size="10" fill="#9AA0AA">planned</text><circle cx="520.8" cy="104" r="4" fill="#6B7280"/><text x="529.8" y="108" font-family="ui-monospace,Menlo,monospace" font-size="10" fill="#9AA0AA">research</text><text x="30" y="134" font-family="-apple-system,Segoe UI,system-ui,sans-serif" font-size="11" font-weight="700" letter-spacing="1.4" fill="#8B909A">RUNTIME &amp; TOOLING</text><line x1="30" y1="144" x2="970" y2="144" stroke="#2A2F37" stroke-width="1"/><rect x="30.0" y="160" width="302.7" height="92" rx="12" fill="#161A21" stroke="#2A2F3A" stroke-width="1"/><circle cx="56.0" cy="190" r="9" fill="#54C5F8" stroke="rgba(0,0,0,.55)" stroke-width="1.2"/><text x="78.0" y="186" font-family="-apple-system,Segoe UI,system-ui,sans-serif" font-size="14" font-weight="700" fill="#E9E9EC">Flutter</text><text x="78.0" y="204" font-family="ui-monospace,Menlo,monospace" font-size="10.5" fill="#9AA0AA">^3.38.3</text><rect x="277" y="172" width="44" height="18" rx="9" fill="#222630" stroke="#69DB88" stroke-width="1"/><text x="299" y="185" text-anchor="middle" font-family="ui-monospace,Menlo,monospace" font-size="9.5" font-weight="700" fill="#69DB88">stable</text><rect x="44.0" y="234" width="274.7" height="8" rx="4" fill="#54C5F8"/><rect x="348.7" y="160" width="302.7" height="92" rx="12" fill="#161A21" stroke="#2A2F3A" stroke-width="1"/><circle cx="374.6666666666667" cy="190" r="9" fill="#0175C2" stroke="rgba(0,0,0,.55)" stroke-width="1.2"/><text x="396.7" y="186" font-family="-apple-system,Segoe UI,system-ui,sans-serif" font-size="14" font-weight="700" fill="#E9E9EC">Dart</text><text x="396.7" y="204" font-family="ui-monospace,Menlo,monospace" font-size="10.5" fill="#9AA0AA">^3.10.1</text><rect x="595" y="172" width="44" height="18" rx="9" fill="#222630" stroke="#69DB88" stroke-width="1"/><text x="617" y="185" text-anchor="middle" font-family="ui-monospace,Menlo,monospace" font-size="9.5" font-weight="700" fill="#69DB88">stable</text><rect x="362.7" y="234" width="274.7" height="8" rx="4" fill="#0175C2"/><rect x="667.3" y="160" width="302.7" height="92" rx="12" fill="#161A21" stroke="#2A2F3A" stroke-width="1"/><circle cx="693.3333333333334" cy="190" r="9" fill="#4F9CF0" stroke="rgba(0,0,0,.55)" stroke-width="1.2"/><text x="715.3" y="186" font-family="-apple-system,Segoe UI,system-ui,sans-serif" font-size="14" font-weight="700" fill="#E9E9EC">DevTools</text><text x="715.3" y="204" font-family="ui-monospace,Menlo,monospace" font-size="10.5" fill="#9AA0AA">^2.51.1</text><rect x="914" y="172" width="44" height="18" rx="9" fill="#222630" stroke="#69DB88" stroke-width="1"/><text x="936" y="185" text-anchor="middle" font-family="ui-monospace,Menlo,monospace" font-size="9.5" font-weight="700" fill="#69DB88">stable</text><rect x="681.3" y="234" width="274.7" height="8" rx="4" fill="#4F9CF0"/><text x="30" y="288" font-family="-apple-system,Segoe UI,system-ui,sans-serif" font-size="11" font-weight="700" letter-spacing="1.4" fill="#8B909A">AI MODELS</text><line x1="30" y1="298" x2="970" y2="298" stroke="#2A2F37" stroke-width="1"/><rect x="30.0" y="314" width="302.7" height="92" rx="12" fill="#161A21" stroke="#2A2F3A" stroke-width="1"/><circle cx="56.0" cy="344" r="9" fill="#4285F4" stroke="rgba(0,0,0,.55)" stroke-width="1.2"/><text x="78.0" y="340" font-family="-apple-system,Segoe UI,system-ui,sans-serif" font-size="14" font-weight="700" fill="#E9E9EC">gemini-2.5-flash</text><text x="78.0" y="358" font-family="ui-monospace,Menlo,monospace" font-size="10.5" fill="#9AA0AA">Google AI</text><rect x="271" y="326" width="50" height="18" rx="9" fill="#222630" stroke="#69DB88" stroke-width="1"/><text x="296" y="339" text-anchor="middle" font-family="ui-monospace,Menlo,monospace" font-size="9.5" font-weight="700" fill="#69DB88">enabled</text><rect x="44.0" y="388" width="274.7" height="8" rx="4" fill="#4285F4"/><rect x="348.7" y="314" width="302.7" height="92" rx="12" fill="#161A21" stroke="#2A2F3A" stroke-width="1"/><circle cx="374.6666666666667" cy="344" r="9" fill="#4285F4" stroke="rgba(0,0,0,.55)" stroke-width="1.2"/><text x="396.7" y="340" font-family="-apple-system,Segoe UI,system-ui,sans-serif" font-size="14" font-weight="700" fill="#E9E9EC">gemini-2.5-pro</text><text x="396.7" y="358" font-family="ui-monospace,Menlo,monospace" font-size="10.5" fill="#9AA0AA">Google AI</text><rect x="589" y="326" width="50" height="18" rx="9" fill="#222630" stroke="#69DB88" stroke-width="1"/><text x="614" y="339" text-anchor="middle" font-family="ui-monospace,Menlo,monospace" font-size="9.5" font-weight="700" fill="#69DB88">enabled</text><rect x="362.7" y="388" width="274.7" height="8" rx="4" fill="#4285F4"/><rect x="667.3" y="314" width="302.7" height="92" rx="12" fill="#161A21" stroke="#2A2F3A" stroke-width="1"/><circle cx="693.3333333333334" cy="344" r="9" fill="#4285F4" stroke="rgba(0,0,0,.55)" stroke-width="1.2"/><text x="715.3" y="340" font-family="-apple-system,Segoe UI,system-ui,sans-serif" font-size="14" font-weight="700" fill="#E9E9EC">nano-banana</text><text x="715.3" y="358" font-family="ui-monospace,Menlo,monospace" font-size="10.5" fill="#9AA0AA">Google AI</text><rect x="878" y="326" width="80" height="18" rx="9" fill="#222630" stroke="#A855F7" stroke-width="1"/><text x="918" y="339" text-anchor="middle" font-family="ui-monospace,Menlo,monospace" font-size="9.5" font-weight="700" fill="#A855F7">experimental</text><rect x="681.3" y="388" width="274.7" height="8" rx="4" fill="#4285F4"/><rect x="30.0" y="422" width="302.7" height="92" rx="12" fill="#161A21" stroke="#2A2F3A" stroke-width="1"/><circle cx="56.0" cy="452" r="9" fill="#10A37F" stroke="rgba(0,0,0,.55)" stroke-width="1.2"/><text x="78.0" y="448" font-family="-apple-system,Segoe UI,system-ui,sans-serif" font-size="14" font-weight="700" fill="#E9E9EC">gpt-4.1</text><text x="78.0" y="466" font-family="ui-monospace,Menlo,monospace" font-size="10.5" fill="#9AA0AA">OpenAI</text><rect x="271" y="434" width="50" height="18" rx="9" fill="#222630" stroke="#69DB88" stroke-width="1"/><text x="296" y="447" text-anchor="middle" font-family="ui-monospace,Menlo,monospace" font-size="9.5" font-weight="700" fill="#69DB88">enabled</text><rect x="44.0" y="496" width="274.7" height="8" rx="4" fill="#10A37F"/><rect x="348.7" y="422" width="302.7" height="92" rx="12" fill="#161A21" stroke="#2A2F3A" stroke-width="1"/><circle cx="374.6666666666667" cy="452" r="9" fill="#10A37F" stroke="rgba(0,0,0,.55)" stroke-width="1.2"/><text x="396.7" y="448" font-family="-apple-system,Segoe UI,system-ui,sans-serif" font-size="14" font-weight="700" fill="#E9E9EC">gpt-4o</text><text x="396.7" y="466" font-family="ui-monospace,Menlo,monospace" font-size="10.5" fill="#9AA0AA">OpenAI</text><rect x="589" y="434" width="50" height="18" rx="9" fill="#222630" stroke="#69DB88" stroke-width="1"/><text x="614" y="447" text-anchor="middle" font-family="ui-monospace,Menlo,monospace" font-size="9.5" font-weight="700" fill="#69DB88">enabled</text><rect x="362.7" y="496" width="274.7" height="8" rx="4" fill="#10A37F"/><rect x="667.3" y="422" width="302.7" height="92" rx="12" fill="#161A21" stroke="#2A2F3A" stroke-width="1"/><circle cx="693.3333333333334" cy="452" r="9" fill="#10A37F" stroke="rgba(0,0,0,.55)" stroke-width="1.2"/><text x="715.3" y="448" font-family="-apple-system,Segoe UI,system-ui,sans-serif" font-size="14" font-weight="700" fill="#E9E9EC">gpt-5-nano</text><text x="715.3" y="466" font-family="ui-monospace,Menlo,monospace" font-size="10.5" fill="#9AA0AA">OpenAI</text><rect x="908" y="434" width="50" height="18" rx="9" fill="#222630" stroke="#69DB88" stroke-width="1"/><text x="933" y="447" text-anchor="middle" font-family="ui-monospace,Menlo,monospace" font-size="9.5" font-weight="700" fill="#69DB88">enabled</text><rect x="681.3" y="496" width="274.7" height="8" rx="4" fill="#10A37F"/><rect x="30.0" y="530" width="302.7" height="92" rx="12" fill="#161A21" stroke="#2A2F3A" stroke-width="1"/><circle cx="56.0" cy="560" r="9" fill="#D97757" stroke="rgba(0,0,0,.55)" stroke-width="1.2"/><text x="78.0" y="556" font-family="-apple-system,Segoe UI,system-ui,sans-serif" font-size="14" font-weight="700" fill="#E9E9EC">claude-sonnet</text><text x="78.0" y="574" font-family="ui-monospace,Menlo,monospace" font-size="10.5" fill="#9AA0AA">Anthropic</text><rect x="271" y="542" width="50" height="18" rx="9" fill="#222630" stroke="#69DB88" stroke-width="1"/><text x="296" y="555" text-anchor="middle" font-family="ui-monospace,Menlo,monospace" font-size="9.5" font-weight="700" fill="#69DB88">enabled</text><rect x="44.0" y="604" width="274.7" height="8" rx="4" fill="#D97757"/><rect x="348.7" y="530" width="302.7" height="92" rx="12" fill="#161A21" stroke="#2A2F3A" stroke-width="1"/><circle cx="374.6666666666667" cy="560" r="9" fill="#D97757" stroke="rgba(0,0,0,.55)" stroke-width="1.2"/><text x="396.7" y="556" font-family="-apple-system,Segoe UI,system-ui,sans-serif" font-size="14" font-weight="700" fill="#E9E9EC">claude-opus</text><text x="396.7" y="574" font-family="ui-monospace,Menlo,monospace" font-size="10.5" fill="#9AA0AA">Anthropic</text><rect x="589" y="542" width="50" height="18" rx="9" fill="#222630" stroke="#878D97" stroke-width="1"/><text x="614" y="555" text-anchor="middle" font-family="ui-monospace,Menlo,monospace" font-size="9.5" font-weight="700" fill="#878D97">planned</text><rect x="362.7" y="604" width="274.7" height="8" rx="4" fill="#D97757"/><rect x="667.3" y="530" width="302.7" height="92" rx="12" fill="#161A21" stroke="#2A2F3A" stroke-width="1"/><circle cx="693.3333333333334" cy="560" r="9" fill="#B8BCC4" stroke="rgba(0,0,0,.55)" stroke-width="1.2"/><text x="715.3" y="556" font-family="-apple-system,Segoe UI,system-ui,sans-serif" font-size="14" font-weight="700" fill="#E9E9EC">grok</text><text x="715.3" y="574" font-family="ui-monospace,Menlo,monospace" font-size="10.5" fill="#9AA0AA">xAI</text><rect x="908" y="542" width="50" height="18" rx="9" fill="#222630" stroke="#69DB88" stroke-width="1"/><text x="933" y="555" text-anchor="middle" font-family="ui-monospace,Menlo,monospace" font-size="9.5" font-weight="700" fill="#69DB88">enabled</text><rect x="681.3" y="604" width="274.7" height="8" rx="4" fill="#B8BCC4"/><rect x="30.0" y="638" width="302.7" height="92" rx="12" fill="#161A21" stroke="#2A2F3A" stroke-width="1"/><circle cx="56.0" cy="668" r="9" fill="#B8BCC4" stroke="rgba(0,0,0,.55)" stroke-width="1.2"/><text x="78.0" y="664" font-family="-apple-system,Segoe UI,system-ui,sans-serif" font-size="14" font-weight="700" fill="#E9E9EC">grok-mini</text><text x="78.0" y="682" font-family="ui-monospace,Menlo,monospace" font-size="10.5" fill="#9AA0AA">xAI</text><rect x="271" y="650" width="50" height="18" rx="9" fill="#222630" stroke="#878D97" stroke-width="1"/><text x="296" y="663" text-anchor="middle" font-family="ui-monospace,Menlo,monospace" font-size="9.5" font-weight="700" fill="#878D97">planned</text><rect x="44.0" y="712" width="274.7" height="8" rx="4" fill="#B8BCC4"/><rect x="348.7" y="638" width="302.7" height="92" rx="12" fill="#161A21" stroke="#2A2F3A" stroke-width="1"/><circle cx="374.6666666666667" cy="668" r="9" fill="#20B8CD" stroke="rgba(0,0,0,.55)" stroke-width="1.2"/><text x="396.7" y="664" font-family="-apple-system,Segoe UI,system-ui,sans-serif" font-size="14" font-weight="700" fill="#E9E9EC">sonar / search</text><text x="396.7" y="682" font-family="ui-monospace,Menlo,monospace" font-size="10.5" fill="#9AA0AA">Perplexity</text><rect x="589" y="650" width="50" height="18" rx="9" fill="#222630" stroke="#878D97" stroke-width="1"/><text x="614" y="663" text-anchor="middle" font-family="ui-monospace,Menlo,monospace" font-size="9.5" font-weight="700" fill="#878D97">planned</text><rect x="362.7" y="712" width="274.7" height="8" rx="4" fill="#20B8CD"/><text x="30" y="766" font-family="-apple-system,Segoe UI,system-ui,sans-serif" font-size="11" font-weight="700" letter-spacing="1.4" fill="#8B909A">FIREBASE</text><line x1="30" y1="776" x2="970" y2="776" stroke="#2A2F37" stroke-width="1"/><rect x="30.0" y="792" width="302.7" height="92" rx="12" fill="#161A21" stroke="#2A2F3A" stroke-width="1"/><circle cx="56.0" cy="822" r="9" fill="#FFCA28" stroke="rgba(0,0,0,.55)" stroke-width="1.2"/><text x="78.0" y="818" font-family="-apple-system,Segoe UI,system-ui,sans-serif" font-size="14" font-weight="700" fill="#E9E9EC">Hosting</text><text x="78.0" y="836" font-family="ui-monospace,Menlo,monospace" font-size="10.5" fill="#9AA0AA">firebase</text><rect x="271" y="804" width="50" height="18" rx="9" fill="#222630" stroke="#69DB88" stroke-width="1"/><text x="296" y="817" text-anchor="middle" font-family="ui-monospace,Menlo,monospace" font-size="9.5" font-weight="700" fill="#69DB88">enabled</text><rect x="44.0" y="866" width="274.7" height="8" rx="4" fill="#FFCA28"/><rect x="348.7" y="792" width="302.7" height="92" rx="12" fill="#161A21" stroke="#2A2F3A" stroke-width="1"/><circle cx="374.6666666666667" cy="822" r="9" fill="#FFCA28" stroke="rgba(0,0,0,.55)" stroke-width="1.2"/><text x="396.7" y="818" font-family="-apple-system,Segoe UI,system-ui,sans-serif" font-size="14" font-weight="700" fill="#E9E9EC">Functions</text><text x="396.7" y="836" font-family="ui-monospace,Menlo,monospace" font-size="10.5" fill="#9AA0AA">firebase</text><rect x="589" y="804" width="50" height="18" rx="9" fill="#222630" stroke="#69DB88" stroke-width="1"/><text x="614" y="817" text-anchor="middle" font-family="ui-monospace,Menlo,monospace" font-size="9.5" font-weight="700" fill="#69DB88">enabled</text><rect x="362.7" y="866" width="274.7" height="8" rx="4" fill="#FFCA28"/><rect x="667.3" y="792" width="302.7" height="92" rx="12" fill="#161A21" stroke="#2A2F3A" stroke-width="1"/><circle cx="693.3333333333334" cy="822" r="9" fill="#FFCA28" stroke="rgba(0,0,0,.55)" stroke-width="1.2"/><text x="715.3" y="818" font-family="-apple-system,Segoe UI,system-ui,sans-serif" font-size="14" font-weight="700" fill="#E9E9EC">Authentication</text><text x="715.3" y="836" font-family="ui-monospace,Menlo,monospace" font-size="10.5" fill="#9AA0AA">firebase</text><rect x="908" y="804" width="50" height="18" rx="9" fill="#222630" stroke="#69DB88" stroke-width="1"/><text x="933" y="817" text-anchor="middle" font-family="ui-monospace,Menlo,monospace" font-size="9.5" font-weight="700" fill="#69DB88">enabled</text><rect x="681.3" y="866" width="274.7" height="8" rx="4" fill="#FFCA28"/><text x="30" y="920" font-family="-apple-system,Segoe UI,system-ui,sans-serif" font-size="11" font-weight="700" letter-spacing="1.4" fill="#8B909A">EARTH</text><line x1="30" y1="930" x2="970" y2="930" stroke="#2A2F37" stroke-width="1"/><rect x="30.0" y="946" width="302.7" height="92" rx="12" fill="#161A21" stroke="#2A2F3A" stroke-width="1"/><circle cx="56.0" cy="976" r="9" fill="#75C8E2" stroke="rgba(0,0,0,.55)" stroke-width="1.2"/><text x="78.0" y="972" font-family="-apple-system,Segoe UI,system-ui,sans-serif" font-size="14" font-weight="700" fill="#E9E9EC">Weather</text><text x="78.0" y="990" font-family="ui-monospace,Menlo,monospace" font-size="10.5" fill="#9AA0AA">live provider</text><rect x="289" y="958" width="32" height="18" rx="9" fill="#222630" stroke="#69DB88" stroke-width="1"/><text x="305" y="971" text-anchor="middle" font-family="ui-monospace,Menlo,monospace" font-size="9.5" font-weight="700" fill="#69DB88">live</text><rect x="44.0" y="1020" width="274.7" height="8" rx="4" fill="#75C8E2"/><rect x="348.7" y="946" width="302.7" height="92" rx="12" fill="#161A21" stroke="#2A2F3A" stroke-width="1"/><circle cx="374.6666666666667" cy="976" r="9" fill="#69DB88" stroke="rgba(0,0,0,.55)" stroke-width="1.2"/><text x="396.7" y="972" font-family="-apple-system,Segoe UI,system-ui,sans-serif" font-size="14" font-weight="700" fill="#E9E9EC">Wind</text><text x="396.7" y="990" font-family="ui-monospace,Menlo,monospace" font-size="10.5" fill="#9AA0AA">GFS u/v</text><rect x="607" y="958" width="32" height="18" rx="9" fill="#222630" stroke="#69DB88" stroke-width="1"/><text x="623" y="971" text-anchor="middle" font-family="ui-monospace,Menlo,monospace" font-size="9.5" font-weight="700" fill="#69DB88">live</text><rect x="362.7" y="1020" width="274.7" height="8" rx="4" fill="#69DB88"/><rect x="667.3" y="946" width="302.7" height="92" rx="12" fill="#161A21" stroke="#2A2F3A" stroke-width="1"/><circle cx="693.3333333333334" cy="976" r="9" fill="#F97316" stroke="rgba(0,0,0,.55)" stroke-width="1.2"/><text x="715.3" y="972" font-family="-apple-system,Segoe UI,system-ui,sans-serif" font-size="14" font-weight="700" fill="#E9E9EC">Wildfires</text><text x="715.3" y="990" font-family="ui-monospace,Menlo,monospace" font-size="10.5" fill="#9AA0AA">FIRMS</text><rect x="926" y="958" width="32" height="18" rx="9" fill="#222630" stroke="#69DB88" stroke-width="1"/><text x="942" y="971" text-anchor="middle" font-family="ui-monospace,Menlo,monospace" font-size="9.5" font-weight="700" fill="#69DB88">live</text><rect x="681.3" y="1020" width="274.7" height="8" rx="4" fill="#F97316"/><rect x="30.0" y="1054" width="302.7" height="92" rx="12" fill="#161A21" stroke="#2A2F3A" stroke-width="1"/><circle cx="56.0" cy="1084" r="9" fill="#14B8A6" stroke="rgba(0,0,0,.55)" stroke-width="1.2"/><text x="78.0" y="1080" font-family="-apple-system,Segoe UI,system-ui,sans-serif" font-size="14" font-weight="700" fill="#E9E9EC">Carbon</text><text x="78.0" y="1098" font-family="ui-monospace,Menlo,monospace" font-size="10.5" fill="#9AA0AA">derived field</text><rect x="271" y="1066" width="50" height="18" rx="9" fill="#222630" stroke="#14B8A6" stroke-width="1"/><text x="296" y="1079" text-anchor="middle" font-family="ui-monospace,Menlo,monospace" font-size="9.5" font-weight="700" fill="#14B8A6">derived</text><rect x="44.0" y="1128" width="274.7" height="8" rx="4" fill="#14B8A6"/><rect x="348.7" y="1054" width="302.7" height="92" rx="12" fill="#161A21" stroke="#2A2F3A" stroke-width="1"/><circle cx="374.6666666666667" cy="1084" r="9" fill="#5AAA32" stroke="rgba(0,0,0,.55)" stroke-width="1.2"/><text x="396.7" y="1080" font-family="-apple-system,Segoe UI,system-ui,sans-serif" font-size="14" font-weight="700" fill="#E9E9EC">Tree-Time</text><text x="396.7" y="1098" font-family="ui-monospace,Menlo,monospace" font-size="10.5" fill="#9AA0AA">derived index</text><rect x="589" y="1066" width="50" height="18" rx="9" fill="#222630" stroke="#14B8A6" stroke-width="1"/><text x="614" y="1079" text-anchor="middle" font-family="ui-monospace,Menlo,monospace" font-size="9.5" font-weight="700" fill="#14B8A6">derived</text><rect x="362.7" y="1128" width="274.7" height="8" rx="4" fill="#5AAA32"/><rect x="667.3" y="1054" width="302.7" height="92" rx="12" fill="#161A21" stroke="#2A2F3A" stroke-width="1"/><circle cx="693.3333333333334" cy="1084" r="9" fill="#D8D8D8" stroke="rgba(0,0,0,.55)" stroke-width="1.2"/><text x="715.3" y="1080" font-family="-apple-system,Segoe UI,system-ui,sans-serif" font-size="14" font-weight="700" fill="#E9E9EC">Glaciers</text><text x="715.3" y="1098" font-family="ui-monospace,Menlo,monospace" font-size="10.5" fill="#9AA0AA">WGMS asset</text><rect x="878" y="1066" width="80" height="18" rx="9" fill="#222630" stroke="#75C8E2" stroke-width="1"/><text x="918" y="1079" text-anchor="middle" font-family="ui-monospace,Menlo,monospace" font-size="9.5" font-weight="700" fill="#75C8E2">asset-backed</text><rect x="681.3" y="1128" width="274.7" height="8" rx="4" fill="#D8D8D8"/><rect x="30.0" y="1162" width="302.7" height="92" rx="12" fill="#161A21" stroke="#2A2F3A" stroke-width="1"/><circle cx="56.0" cy="1192" r="9" fill="#2878C8" stroke="rgba(0,0,0,.55)" stroke-width="1.2"/><text x="78.0" y="1188" font-family="-apple-system,Segoe UI,system-ui,sans-serif" font-size="14" font-weight="700" fill="#E9E9EC">Ocean</text><text x="78.0" y="1206" font-family="ui-monospace,Menlo,monospace" font-size="10.5" fill="#9AA0AA">OSCAR</text><rect x="265" y="1174" width="56" height="18" rx="9" fill="#222630" stroke="#6B7280" stroke-width="1"/><text x="293" y="1187" text-anchor="middle" font-family="ui-monospace,Menlo,monospace" font-size="9.5" font-weight="700" fill="#6B7280">research</text><rect x="44.0" y="1236" width="274.7" height="8" rx="4" fill="#2878C8"/><rect x="348.7" y="1162" width="302.7" height="92" rx="12" fill="#161A21" stroke="#2A2F3A" stroke-width="1"/><circle cx="374.6666666666667" cy="1192" r="9" fill="#5271FF" stroke="rgba(0,0,0,.55)" stroke-width="1.2"/><text x="396.7" y="1188" font-family="-apple-system,Segoe UI,system-ui,sans-serif" font-size="14" font-weight="700" fill="#E9E9EC">Flights</text><text x="396.7" y="1206" font-family="ui-monospace,Menlo,monospace" font-size="10.5" fill="#9AA0AA">OpenSky</text><rect x="583" y="1174" width="56" height="18" rx="9" fill="#222630" stroke="#6B7280" stroke-width="1"/><text x="611" y="1187" text-anchor="middle" font-family="ui-monospace,Menlo,monospace" font-size="9.5" font-weight="700" fill="#6B7280">research</text><rect x="362.7" y="1236" width="274.7" height="8" rx="4" fill="#5271FF"/><rect x="667.3" y="1162" width="302.7" height="92" rx="12" fill="#161A21" stroke="#2A2F3A" stroke-width="1"/><circle cx="693.3333333333334" cy="1192" r="9" fill="#75C8E2" stroke="rgba(0,0,0,.55)" stroke-width="1.2"/><text x="715.3" y="1188" font-family="-apple-system,Segoe UI,system-ui,sans-serif" font-size="14" font-weight="700" fill="#E9E9EC">Ships</text><text x="715.3" y="1206" font-family="ui-monospace,Menlo,monospace" font-size="10.5" fill="#9AA0AA">GFW</text><rect x="902" y="1174" width="56" height="18" rx="9" fill="#222630" stroke="#6B7280" stroke-width="1"/><text x="930" y="1187" text-anchor="middle" font-family="ui-monospace,Menlo,monospace" font-size="9.5" font-weight="700" fill="#6B7280">research</text><rect x="681.3" y="1236" width="274.7" height="8" rx="4" fill="#75C8E2"/><rect x="30.0" y="1270" width="302.7" height="92" rx="12" fill="#161A21" stroke="#2A2F3A" stroke-width="1"/><circle cx="56.0" cy="1300" r="9" fill="#9C7A28" stroke="rgba(0,0,0,.55)" stroke-width="1.2"/><text x="78.0" y="1296" font-family="-apple-system,Segoe UI,system-ui,sans-serif" font-size="14" font-weight="700" fill="#E9E9EC">Terrain</text><text x="78.0" y="1314" font-family="ui-monospace,Menlo,monospace" font-size="10.5" fill="#9AA0AA">elevation</text><rect x="265" y="1282" width="56" height="18" rx="9" fill="#222630" stroke="#6B7280" stroke-width="1"/><text x="293" y="1295" text-anchor="middle" font-family="ui-monospace,Menlo,monospace" font-size="9.5" font-weight="700" fill="#6B7280">research</text><rect x="44.0" y="1344" width="274.7" height="8" rx="4" fill="#9C7A28"/><text x="30" y="1398" font-family="-apple-system,Segoe UI,system-ui,sans-serif" font-size="11" font-weight="700" letter-spacing="1.4" fill="#8B909A">AGENT FRAMEWORK</text><line x1="30" y1="1408" x2="970" y2="1408" stroke="#2A2F37" stroke-width="1"/><rect x="30.0" y="1424" width="302.7" height="92" rx="12" fill="#161A21" stroke="#2A2F3A" stroke-width="1"/><circle cx="56.0" cy="1454" r="9" fill="#FF4124" stroke="rgba(0,0,0,.55)" stroke-width="1.2"/><text x="78.0" y="1450" font-family="-apple-system,Segoe UI,system-ui,sans-serif" font-size="14" font-weight="700" fill="#E9E9EC">random1y</text><text x="78.0" y="1468" font-family="ui-monospace,Menlo,monospace" font-size="10.5" fill="#9AA0AA">orchestration</text><rect x="271" y="1436" width="50" height="18" rx="9" fill="#222630" stroke="#69DB88" stroke-width="1"/><text x="296" y="1449" text-anchor="middle" font-family="ui-monospace,Menlo,monospace" font-size="9.5" font-weight="700" fill="#69DB88">enabled</text><rect x="44.0" y="1498" width="274.7" height="8" rx="4" fill="#FF4124"/><rect x="348.7" y="1424" width="302.7" height="92" rx="12" fill="#161A21" stroke="#2A2F3A" stroke-width="1"/><circle cx="374.6666666666667" cy="1454" r="9" fill="#FF4124" stroke="rgba(0,0,0,.55)" stroke-width="1.2"/><text x="396.7" y="1450" font-family="-apple-system,Segoe UI,system-ui,sans-serif" font-size="14" font-weight="700" fill="#E9E9EC">knight1y</text><text x="396.7" y="1468" font-family="ui-monospace,Menlo,monospace" font-size="10.5" fill="#9AA0AA">research</text><rect x="589" y="1436" width="50" height="18" rx="9" fill="#222630" stroke="#69DB88" stroke-width="1"/><text x="614" y="1449" text-anchor="middle" font-family="ui-monospace,Menlo,monospace" font-size="9.5" font-weight="700" fill="#69DB88">enabled</text><rect x="362.7" y="1498" width="274.7" height="8" rx="4" fill="#FF4124"/><rect x="667.3" y="1424" width="302.7" height="92" rx="12" fill="#161A21" stroke="#2A2F3A" stroke-width="1"/><circle cx="693.3333333333334" cy="1454" r="9" fill="#FF4124" stroke="rgba(0,0,0,.55)" stroke-width="1.2"/><text x="715.3" y="1450" font-family="-apple-system,Segoe UI,system-ui,sans-serif" font-size="14" font-weight="700" fill="#E9E9EC">c0nnect</text><text x="715.3" y="1468" font-family="ui-monospace,Menlo,monospace" font-size="10.5" fill="#9AA0AA">connectors</text><rect x="908" y="1436" width="50" height="18" rx="9" fill="#222630" stroke="#69DB88" stroke-width="1"/><text x="933" y="1449" text-anchor="middle" font-family="ui-monospace,Menlo,monospace" font-size="9.5" font-weight="700" fill="#69DB88">enabled</text><rect x="681.3" y="1498" width="274.7" height="8" rx="4" fill="#FF4124"/><rect x="30.0" y="1532" width="302.7" height="92" rx="12" fill="#161A21" stroke="#2A2F3A" stroke-width="1"/><circle cx="56.0" cy="1562" r="9" fill="#FF4124" stroke="rgba(0,0,0,.55)" stroke-width="1.2"/><text x="78.0" y="1558" font-family="-apple-system,Segoe UI,system-ui,sans-serif" font-size="14" font-weight="700" fill="#E9E9EC">e1evate</text><text x="78.0" y="1576" font-family="ui-monospace,Menlo,monospace" font-size="10.5" fill="#9AA0AA">optimization</text><rect x="271" y="1544" width="50" height="18" rx="9" fill="#222630" stroke="#69DB88" stroke-width="1"/><text x="296" y="1557" text-anchor="middle" font-family="ui-monospace,Menlo,monospace" font-size="9.5" font-weight="700" fill="#69DB88">enabled</text><rect x="44.0" y="1606" width="274.7" height="8" rx="4" fill="#FF4124"/><rect x="348.7" y="1532" width="302.7" height="92" rx="12" fill="#161A21" stroke="#2A2F3A" stroke-width="1"/><circle cx="374.6666666666667" cy="1562" r="9" fill="#69DB88" stroke="rgba(0,0,0,.55)" stroke-width="1.2"/><text x="396.7" y="1558" font-family="-apple-system,Segoe UI,system-ui,sans-serif" font-size="14" font-weight="700" fill="#E9E9EC">Earth</text><text x="396.7" y="1576" font-family="ui-monospace,Menlo,monospace" font-size="10.5" fill="#9AA0AA">data + scoring</text><rect x="589" y="1544" width="50" height="18" rx="9" fill="#222630" stroke="#69DB88" stroke-width="1"/><text x="614" y="1557" text-anchor="middle" font-family="ui-monospace,Menlo,monospace" font-size="9.5" font-weight="700" fill="#69DB88">enabled</text><rect x="362.7" y="1606" width="274.7" height="8" rx="4" fill="#69DB88"/><rect x="667.3" y="1532" width="302.7" height="92" rx="12" fill="#161A21" stroke="#2A2F3A" stroke-width="1"/><circle cx="693.3333333333334" cy="1562" r="9" fill="#75C8E2" stroke="rgba(0,0,0,.55)" stroke-width="1.2"/><text x="715.3" y="1558" font-family="-apple-system,Segoe UI,system-ui,sans-serif" font-size="14" font-weight="700" fill="#E9E9EC">Glacier Summary</text><text x="715.3" y="1576" font-family="ui-monospace,Menlo,monospace" font-size="10.5" fill="#9AA0AA">WGMS rollup</text><rect x="932" y="1544" width="26" height="18" rx="9" fill="#222630" stroke="#EDC303" stroke-width="1"/><text x="945" y="1557" text-anchor="middle" font-family="ui-monospace,Menlo,monospace" font-size="9.5" font-weight="700" fill="#EDC303">MVP</text><rect x="681.3" y="1606" width="274.7" height="8" rx="4" fill="#75C8E2"/></svg>