<svg xmlns="http://www.w3.org/2000/svg" width="1000" height="952" viewBox="0 0 1000 952" font-family="-apple-system,Segoe UI,system-ui,sans-serif"><defs></defs><rect x="0" y="0" width="1000" height="952" rx="18" fill="#0E1116"/><text x="30" y="56" font-family="-apple-system,Segoe UI,system-ui,sans-serif" font-size="30" font-weight="800" fill="#E9E9EC" letter-spacing="0.5">CORE SOLUTIONS</text><rect x="30" y="66" width="74" height="4" rx="2" fill="#FAAFA5"/><text x="30" y="90" font-family="ui-monospace,Menlo,monospace" font-size="12" fill="#9AA0AA">rand0m / Random Knights - stack, models &amp; status</text><circle cx="34" cy="104" r="4" fill="#69DB88"/><text x="43" y="108" font-family="ui-monospace,Menlo,monospace" font-size="10" fill="#9AA0AA">live</text><circle cx="81.6" cy="104" r="4" fill="#69DB88"/><text x="90.6" y="108" font-family="ui-monospace,Menlo,monospace" font-size="10" fill="#9AA0AA">enabled</text><circle cx="148.4" cy="104" r="4" fill="#14B8A6"/><text x="157.4" y="108" font-family="ui-monospace,Menlo,monospace" font-size="10" fill="#9AA0AA">derived</text><circle cx="215.20000000000002" cy="104" r="4" fill="#75C8E2"/><text x="224.20000000000002" y="108" font-family="ui-monospace,Menlo,monospace" font-size="10" fill="#9AA0AA">asset-backed</text><circle cx="314.0" cy="104" r="4" fill="#A855F7"/><text x="323.0" y="108" font-family="ui-monospace,Menlo,monospace" font-size="10" fill="#9AA0AA">experimental</text><circle cx="412.8" cy="104" r="4" fill="#EDC303"/><text x="421.8" y="108" font-family="ui-monospace,Menlo,monospace" font-size="10" fill="#9AA0AA">MVP</text><circle cx="454.0" cy="104" r="4" fill="#878D97"/><text x="463.0" y="108" font-family="ui-monospace,Menlo,monospace" font-size="10" fill="#9AA0AA">planned</text><circle cx="520.8" cy="104" r="4" fill="#6B7280"/><text x="529.8" y="108" font-family="ui-monospace,Menlo,monospace" font-size="10" fill="#9AA0AA">research</text><text x="30" y="134" font-family="-apple-system,Segoe UI,system-ui,sans-serif" font-size="11" font-weight="700" letter-spacing="1.4" fill="#8B909A">RUNTIME &amp; TOOLING</text><line x1="30" y1="144" x2="970" y2="144" stroke="#2A2F37" stroke-width="1"/><rect x="30.0" y="160" width="302.7" height="92" rx="12" fill="#161A21" stroke="#2A2F3A" stroke-width="1"/><circle cx="56.0" cy="190" r="9" fill="#54C5F8" stroke="rgba(0,0,0,.55)" stroke-width="1.2"/><text x="78.0" y="186" font-family="-apple-system,Segoe UI,system-ui,sans-serif" font-size="14" font-weight="700" fill="#E9E9EC">Flutter</text><text x="78.0" y="204" font-family="ui-monospace,Menlo,monospace" font-size="10.5" fill="#9AA0AA">^3.38.3</text><rect x="277" y="172" width="44" height="18" rx="9" fill="#222630" stroke="#69DB88" stroke-width="1"/><text x="299" y="185" text-anchor="middle" font-family="ui-monospace,Menlo,monospace" font-size="9.5" font-weight="700" fill="#69DB88">stable</text><rect x="44.0" y="234" width="274.7" height="8" rx="4" fill="#54C5F8"/><rect x="348.7" y="160" width="302.7" height="92" rx="12" fill="#161A21" stroke="#2A2F3A" stroke-width="1"/><circle cx="374.6666666666667" cy="190" r="9" fill="#0175C2" stroke="rgba(0,0,0,.55)" stroke-width="1.2"/><text x="396.7" y="186" font-family="-apple-system,Segoe UI,system-ui,sans-serif" font-size="14" font-weight="700" fill="#E9E9EC">Dart</text><text x="396.7" y="204" font-family="ui-monospace,Menlo,monospace" font-size="10.5" fill="#9AA0AA">^3.10.1</text><rect x="595" y="172" width="44" height="18" rx="9" fill="#222630" stroke="#69DB88" stroke-width="1"/><text x="617" y="185" text-anchor="middle" font-family="ui-monospace,Menlo,monospace" font-size="9.5" font-weight="700" fill="#69DB88">stable</text><rect x="362.7" y="234" width="274.7" height="8" rx="4" fill="#0175C2"/><rect x="667.3" y="160" width="302.7" height="92" rx="12" fill="#161A21" stroke="#2A2F3A" stroke-width="1"/><circle cx="693.3333333333334" cy="190" r="9" fill="#4F9CF0" stroke="rgba(0,0,0,.55)" stroke-width="1.2"/><text x="715.3" y="186" font-family="-apple-system,Segoe UI,system-ui,sans-serif" font-size="14" font-weight="700" fill="#E9E9EC">DevTools</text><text x="715.3" y="204" font-family="ui-monospace,Menlo,monospace" font-size="10.5" fill="#9AA0AA">^2.51.1</text><rect x="914" y="172" width="44" height="18" rx="9" fill="#222630" stroke="#69DB88" stroke-width="1"/><text x="936" y="185" text-anchor="middle" font-family="ui-monospace,Menlo,monospace" font-size="9.5" font-weight="700" fill="#69DB88">stable</text><rect x="681.3" y="234" width="274.7" height="8" rx="4" fill="#4F9CF0"/><text x="30" y="288" font-family="-apple-system,Segoe UI,system-ui,sans-serif" font-size="11" font-weight="700" letter-spacing="1.4" fill="#8B909A">AI MODELS</text><line x1="30" y1="298" x2="970" y2="298" stroke="#2A2F37" stroke-width="1"/><rect x="30.0" y="314" width="302.7" height="92" rx="12" fill="#161A21" stroke="#2A2F3A" stroke-width="1"/><circle cx="56.0" cy="344" r="9" fill="#4285F4" stroke="rgba(0,0,0,.55)" stroke-width="1.2"/><text x="78.0" y="340" font-family="-apple-system,Segoe UI,system-ui,sans-serif" font-size="14" font-weight="700" fill="#E9E9EC">gemini-2.5-flash</text><text x="78.0" y="358" font-family="ui-monospace,Menlo,monospace" font-size="10.5" fill="#9AA0AA">Google AI</text><rect x="271" y="326" width="50" height="18" rx="9" fill="#222630" stroke="#69DB88" stroke-width="1"/><text x="296" y="339" text-anchor="middle" font-family="ui-monospace,Menlo,monospace" font-size="9.5" font-weight="700" fill="#69DB88">enabled</text><rect x="44.0" y="388" width="274.7" height="8" rx="4" fill="#4285F4"/><rect x="348.7" y="314" width="302.7" height="92" rx="12" fill="#161A21" stroke="#2A2F3A" stroke-width="1"/><circle cx="374.6666666666667" cy="344" r="9" fill="#4285F4" stroke="rgba(0,0,0,.55)" stroke-width="1.2"/><text x="396.7" y="340" font-family="-apple-system,Segoe UI,system-ui,sans-serif" font-size="14" font-weight="700" fill="#E9E9EC">gemini-2.5-pro</text><text x="396.7" y="358" font-family="ui-monospace,Menlo,monospace" font-size="10.5" fill="#9AA0AA">Google AI</text><rect x="589" y="326" width="50" height="18" rx="9" fill="#222630" stroke="#69DB88" stroke-width="1"/><text x="614" y="339" text-anchor="middle" font-family="ui-monospace,Menlo,monospace" font-size="9.5" font-weight="700" fill="#69DB88">enabled</text><rect x="362.7" y="388" width="274.7" height="8" rx="4" fill="#4285F4"/><rect x="667.3" y="314" width="302.7" height="92" rx="12" fill="#161A21" stroke="#2A2F3A" stroke-width="1"/><circle cx="693.3333333333334" cy="344" r="9" fill="#4285F4" stroke="rgba(0,0,0,.55)" stroke-width="1.2"/><text x="715.3" y="340" font-family="-apple-system,Segoe UI,system-ui,sans-serif" font-size="14" font-weight="700" fill="#E9E9EC">nano-banana</text><text x="715.3" y="358" font-family="ui-monospace,Menlo,monospace" font-size="10.5" fill="#9AA0AA">Google AI</text><rect x="878" y="326" width="80" height="18" rx="9" fill="#222630" stroke="#A855F7" stroke-width="1"/><text x="918" y="339" text-anchor="middle" font-family="ui-monospace,Menlo,monospace" font-size="9.5" font-weight="700" fill="#A855F7">experimental</text><rect x="681.3" y="388" width="274.7" height="8" rx="4" fill="#4285F4"/><rect x="30.0" y="422" width="302.7" height="92" rx="12" fill="#161A21" stroke="#2A2F3A" stroke-width="1"/><circle cx="56.0" cy="452" r="9" fill="#10A37F" stroke="rgba(0,0,0,.55)" stroke-width="1.2"/><text x="78.0" y="448" font-family="-apple-system,Segoe UI,system-ui,sans-serif" font-size="14" font-weight="700" fill="#E9E9EC">gpt-4.1</text><text x="78.0" y="466" font-family="ui-monospace,Menlo,monospace" font-size="10.5" fill="#9AA0AA">OpenAI</text><rect x="271" y="434" width="50" height="18" rx="9" fill="#222630" stroke="#69DB88" stroke-width="1"/><text x="296" y="447" text-anchor="middle" font-family="ui-monospace,Menlo,monospace" font-size="9.5" font-weight="700" fill="#69DB88">enabled</text><rect x="44.0" y="496" width="274.7" height="8" rx="4" fill="#10A37F"/><rect x="348.7" y="422" width="302.7" height="92" rx="12" fill="#161A21" stroke="#2A2F3A" stroke-width="1"/><circle cx="374.6666666666667" cy="452" r="9" fill="#10A37F" stroke="rgba(0,0,0,.55)" stroke-width="1.2"/><text x="396.7" y="448" font-family="-apple-system,Segoe UI,system-ui,sans-serif" font-size="14" font-weight="700" fill="#E9E9EC">gpt-4o</text><text x="396.7" y="466" font-family="ui-monospace,Menlo,monospace" font-size="10.5" fill="#9AA0AA">OpenAI</text><rect x="589" y="434" width="50" height="18" rx="9" fill="#222630" stroke="#69DB88" stroke-width="1"/><text x="614" y="447" text-anchor="middle" font-family="ui-monospace,Menlo,monospace" font-size="9.5" font-weight="700" fill="#69DB88">enabled</text><rect x="362.7" y="496" width="274.7" height="8" rx="4" fill="#10A37F"/><rect x="667.3" y="422" width="302.7" height="92" rx="12" fill="#161A21" stroke="#2A2F3A" stroke-width="1"/><circle cx="693.3333333333334" cy="452" r="9" fill="#10A37F" stroke="rgba(0,0,0,.55)" stroke-width="1.2"/><text x="715.3" y="448" font-family="-apple-system,Segoe UI,system-ui,sans-serif" font-size="14" font-weight="700" fill="#E9E9EC">gpt-5-nano</text><text x="715.3" y="466" font-family="ui-monospace,Menlo,monospace" font-size="10.5" fill="#9AA0AA">OpenAI</text><rect x="908" y="434" width="50" height="18" rx="9" fill="#222630" stroke="#69DB88" stroke-width="1"/><text x="933" y="447" text-anchor="middle" font-family="ui-monospace,Menlo,monospace" font-size="9.5" font-weight="700" fill="#69DB88">enabled</text><rect x="681.3" y="496" width="274.7" height="8" rx="4" fill="#10A37F"/><rect x="30.0" y="530" width="302.7" height="92" rx="12" fill="#161A21" stroke="#2A2F3A" stroke-width="1"/><circle cx="56.0" cy="560" r="9" fill="#D97757" stroke="rgba(0,0,0,.55)" stroke-width="1.2"/><text x="78.0" y="556" font-family="-apple-system,Segoe UI,system-ui,sans-serif" font-size="14" font-weight="700" fill="#E9E9EC">claude-sonnet</text><text x="78.0" y="574" font-family="ui-monospace,Menlo,monospace" font-size="10.5" fill="#9AA0AA">Anthropic</text><rect x="271" y="542" width="50" height="18" rx="9" fill="#222630" stroke="#69DB88" stroke-width="1"/><text x="296" y="555" text-anchor="middle" font-family="ui-monospace,Menlo,monospace" font-size="9.5" font-weight="700" fill="#69DB88">enabled</text><rect x="44.0" y="604" width="274.7" height="8" rx="4" fill="#D97757"/><rect x="348.7" y="530" width="302.7" height="92" rx="12" fill="#161A21" stroke="#2A2F3A" stroke-width="1"/><circle cx="374.6666666666667" cy="560" r="9" fill="#D97757" stroke="rgba(0,0,0,.55)" stroke-width="1.2"/><text x="396.7" y="556" font-family="-apple-system,Segoe UI,system-ui,sans-serif" font-size="14" font-weight="700" fill="#E9E9EC">claude-opus</text><text x="396.7" y="574" font-family="ui-monospace,Menlo,monospace" font-size="10.5" fill="#9AA0AA">Anthropic</text><rect x="589" y="542" width="50" height="18" rx="9" fill="#222630" stroke="#878D97" stroke-width="1"/><text x="614" y="555" text-anchor="middle" font-family="ui-monospace,Menlo,monospace" font-size="9.5" font-weight="700" fill="#878D97">planned</text><rect x="362.7" y="604" width="274.7" height="8" rx="4" fill="#D97757"/><rect x="667.3" y="530" width="302.7" height="92" rx="12" fill="#161A21" stroke="#2A2F3A" stroke-width="1"/><circle cx="693.3333333333334" cy="560" r="9" fill="#B8BCC4" stroke="rgba(0,0,0,.55)" stroke-width="1.2"/><text x="715.3" y="556" font-family="-apple-system,Segoe UI,system-ui,sans-serif" font-size="14" font-weight="700" fill="#E9E9EC">grok</text><text x="715.3" y="574" font-family="ui-monospace,Menlo,monospace" font-size="10.5" fill="#9AA0AA">xAI</text><rect x="908" y="542" width="50" height="18" rx="9" fill="#222630" stroke="#69DB88" stroke-width="1"/><text x="933" y="555" text-anchor="middle" font-family="ui-monospace,Menlo,monospace" font-size="9.5" font-weight="700" fill="#69DB88">enabled</text><rect x="681.3" y="604" width="274.7" height="8" rx="4" fill="#B8BCC4"/><rect x="30.0" y="638" width="302.7" height="92" rx="12" fill="#161A21" stroke="#2A2F3A" stroke-width="1"/><circle cx="56.0" cy="668" r="9" fill="#B8BCC4" stroke="rgba(0,0,0,.55)" stroke-width="1.2"/><text x="78.0" y="664" font-family="-apple-system,Segoe UI,system-ui,sans-serif" font-size="14" font-weight="700" fill="#E9E9EC">grok-mini</text><text x="78.0" y="682" font-family="ui-monospace,Menlo,monospace" font-size="10.5" fill="#9AA0AA">xAI</text><rect x="271" y="650" width="50" height="18" rx="9" fill="#222630" stroke="#878D97" stroke-width="1"/><text x="296" y="663" text-anchor="middle" font-family="ui-monospace,Menlo,monospace" font-size="9.5" font-weight="700" fill="#878D97">planned</text><rect x="44.0" y="712" width="274.7" height="8" rx="4" fill="#B8BCC4"/><rect x="348.7" y="638" width="302.7" height="92" rx="12" fill="#161A21" stroke="#2A2F3A" stroke-width="1"/><circle cx="374.6666666666667" cy="668" r="9" fill="#20B8CD" stroke="rgba(0,0,0,.55)" stroke-width="1.2"/><text x="396.7" y="664" font-family="-apple-system,Segoe UI,system-ui,sans-serif" font-size="14" font-weight="700" fill="#E9E9EC">sonar / search</text><text x="396.7" y="682" font-family="ui-monospace,Menlo,monospace" font-size="10.5" fill="#9AA0AA">Perplexity</text><rect x="589" y="650" width="50" height="18" rx="9" fill="#222630" stroke="#878D97" stroke-width="1"/><text x="614" y="663" text-anchor="middle" font-family="ui-monospace,Menlo,monospace" font-size="9.5" font-weight="700" fill="#878D97">planned</text><rect x="362.7" y="712" width="274.7" height="8" rx="4" fill="#20B8CD"/><text x="30" y="766" font-family="-apple-system,Segoe UI,system-ui,sans-serif" font-size="11" font-weight="700" letter-spacing="1.4" fill="#8B909A">FIREBASE</text><line x1="30" y1="776" x2="970" y2="776" stroke="#2A2F37" stroke-width="1"/><rect x="30.0" y="792" width="302.7" height="92" rx="12" fill="#161A21" stroke="#2A2F3A" stroke-width="1"/><circle cx="56.0" cy="822" r="9" fill="#FFCA28" stroke="rgba(0,0,0,.55)" stroke-width="1.2"/><text x="78.0" y="818" font-family="-apple-system,Segoe UI,system-ui,sans-serif" font-size="14" font-weight="700" fill="#E9E9EC">Hosting</text><text x="78.0" y="836" font-family="ui-monospace,Menlo,monospace" font-size="10.5" fill="#9AA0AA">firebase</text><rect x="271" y="804" width="50" height="18" rx="9" fill="#222630" stroke="#69DB88" stroke-width="1"/><text x="296" y="817" text-anchor="middle" font-family="ui-monospace,Menlo,monospace" font-size="9.5" font-weight="700" fill="#69DB88">enabled</text><rect x="44.0" y="866" width="274.7" height="8" rx="4" fill="#FFCA28"/><rect x="348.7" y="792" width="302.7" height="92" rx="12" fill="#161A21" stroke="#2A2F3A" stroke-width="1"/><circle cx="374.6666666666667" cy="822" r="9" fill="#FFCA28" stroke="rgba(0,0,0,.55)" stroke-width="1.2"/><text x="396.7" y="818" font-family="-apple-system,Segoe UI,system-ui,sans-serif" font-size="14" font-weight="700" fill="#E9E9EC">Functions</text><text x="396.7" y="836" font-family="ui-monospace,Menlo,monospace" font-size="10.5" fill="#9AA0AA">firebase</text><rect x="589" y="804" width="50" height="18" rx="9" fill="#222630" stroke="#69DB88" stroke-width="1"/><text x="614" y="817" text-anchor="middle" font-family="ui-monospace,Menlo,monospace" font-size="9.5" font-weight="700" fill="#69DB88">enabled</text><rect x="362.7" y="866" width="274.7" height="8" rx="4" fill="#FFCA28"/><rect x="667.3" y="792" width="302.7" height="92" rx="12" fill="#161A21" stroke="#2A2F3A" stroke-width="1"/><circle cx="693.3333333333334" cy="822" r="9" fill="#FFCA28" stroke="rgba(0,0,0,.55)" stroke-width="1.2"/><text x="715.3" y="818" font-family="-apple-system,Segoe UI,system-ui,sans-serif" font-size="14" font-weight="700" fill="#E9E9EC">Authentication</text><text x="715.3" y="836" font-family="ui-monospace,Menlo,monospace" font-size="10.5" fill="#9AA0AA">firebase</text><rect x="908" y="804" width="50" height="18" rx="9" fill="#222630" stroke="#69DB88" stroke-width="1"/><text x="933" y="817" text-anchor="middle" font-family="ui-monospace,Menlo,monospace" font-size="9.5" font-weight="700" fill="#69DB88">enabled</text><rect x="681.3" y="866" width="274.7" height="8" rx="4" fill="#FFCA28"/></svg>
